<svg width="48" height="48" viewBox="0 0 48 48" fill="none" xmlns="http://www.w3.org/2000/svg">
<g clip-path="url(#clip0_51_9209)">
<path d="M24 0C19.2533 0 14.6131 1.40758 10.6663 4.04473C6.71955 6.68188 3.64341 10.4302 1.8269 14.8156C0.0103988 19.201 -0.464881 24.0266 0.461164 28.6822C1.38721 33.3377 3.67299 37.6141 7.02945 40.9706C10.3859 44.327 14.6623 46.6128 19.3178 47.5389C23.9734 48.4649 28.799 47.9896 33.1844 46.1731C37.5698 44.3566 41.3181 41.2805 43.9553 37.3337C46.5924 33.3869 48 28.7468 48 24C48 17.6348 45.4714 11.5303 40.9706 7.02944C36.4697 2.52856 30.3652 0 24 0V0ZM36.3537 17.6842C36.3537 17.9558 36.3758 18.2274 36.3758 18.5084C36.3758 26.9305 29.9621 36.6474 18.2305 36.6474C14.7593 36.6612 11.3586 35.6673 8.44106 33.7863C8.94697 33.8495 9.45651 33.8791 9.96633 33.8747C12.8276 33.875 15.6067 32.9179 17.8611 31.1558C16.5326 31.1166 15.2489 30.6673 14.1859 29.8695C13.123 29.0717 12.333 27.9646 11.9242 26.7C12.3224 26.7789 12.7279 26.8149 13.1337 26.8074C13.6973 26.8123 14.2591 26.7422 14.8042 26.5989C13.3627 26.3006 12.0679 25.5147 11.1378 24.3736C10.2078 23.2325 9.6993 21.8058 9.69791 20.3337V20.2642C10.5809 20.7536 11.5687 21.0233 12.5779 21.0505C11.2258 20.1471 10.2698 18.7613 9.90535 17.1765C9.54085 15.5918 9.79536 13.9276 10.6169 12.5242C12.2145 14.4982 14.2106 16.1128 16.4749 17.2626C18.7391 18.4124 21.2205 19.0715 23.7569 19.1968C23.6537 18.7196 23.6039 18.2324 23.6084 17.7442C23.6073 16.4651 23.9912 15.2154 24.71 14.1574C25.4288 13.0994 26.4494 12.2822 27.6389 11.8121C28.8285 11.3421 30.132 11.2408 31.3798 11.5215C32.6277 11.8023 33.7622 12.4521 34.6358 13.3863C36.0614 13.106 37.4285 12.5837 38.6779 11.8421C38.2064 13.3207 37.2086 14.5747 35.8737 15.3663C37.14 15.2089 38.3769 14.8697 39.5463 14.3589C38.6942 15.6531 37.6121 16.7801 36.3537 17.6842Z" fill="black"/>
</g>
<defs>
<clipPath id="clip0_51_9209">
<rect width="48" height="48" fill="black"/>
</clipPath>
</defs>
</svg>
