<svg width="49" height="48" viewBox="0 0 49 48" fill="none" xmlns="http://www.w3.org/2000/svg">
<g clip-path="url(#clip0_51_9213)">
<path d="M24.5 0C19.6544 0 14.9175 1.40758 10.8885 4.04473C6.85954 6.68188 3.71931 10.4302 1.86496 14.8156C0.0106154 19.201 -0.474566 24.0266 0.470772 28.6822C1.41611 33.3377 3.74951 37.6141 7.1759 40.9706C10.6023 44.327 14.9678 46.6128 19.7203 47.5389C24.4728 48.4649 29.399 47.9896 33.8758 46.1731C38.3525 44.3566 42.1789 41.2805 44.871 37.3337C47.5631 33.3869 49 28.7468 49 24C49 17.6348 46.4188 11.5303 41.8241 7.02944C37.2295 2.52856 30.9978 0 24.5 0V0ZM31.4696 15.6189C31.4696 16.0705 31.2762 16.2505 30.8249 16.2505C29.9577 16.2505 29.0905 16.2505 28.2266 16.2853C27.3626 16.32 26.892 16.7053 26.892 17.5895C26.8726 18.5368 26.892 19.4653 26.892 20.4316H30.6024C31.1311 20.4316 31.3117 20.6084 31.3117 21.1295C31.3117 22.3926 31.3117 23.6621 31.3117 24.9379C31.3117 25.4526 31.144 25.6137 30.6121 25.6168H26.8597V35.8926C26.8597 36.4421 26.6857 36.6158 26.1312 36.6158H22.0951C21.6084 36.6158 21.4182 36.4295 21.4182 35.9526V25.6326H18.2138C17.7109 25.6326 17.5304 25.4526 17.5304 24.9568C17.5304 23.6789 17.5304 22.4021 17.5304 21.1263C17.5304 20.6337 17.7206 20.4474 18.2171 20.4474H21.4182V17.6842C21.3802 16.443 21.6842 15.2147 22.2982 14.1284C22.9366 13.0317 23.9594 12.1991 25.177 11.7853C25.9671 11.5036 26.8023 11.3625 27.6431 11.3684H30.812C31.2665 11.3684 31.4567 11.5642 31.4567 12C31.4728 13.2158 31.4728 14.4189 31.4696 15.6189Z" fill="black"/>
</g>
<defs>
<clipPath id="clip0_51_9213">
<rect width="49" height="48" fill="black"/>
</clipPath>
</defs>
</svg>
