<svg width="138" height="138" viewBox="0 0 138 138" fill="none" xmlns="http://www.w3.org/2000/svg">
<g clip-path="url(#clip0_422_17)">
<path d="M103.559 135.301L110.713 116.336L74.6328 102.727L62.3457 135.301H103.559Z" fill="#6C8F70"/>
<path d="M101.354 102.595L90.114 117.799C88.3006 120.252 88.585 123.669 90.7792 125.789C92.988 127.922 96.441 128.075 98.829 126.144L118.748 110.035L135.305 84.8042L111.553 70.2158L105.65 78.8085L92.7522 87.4068C89.1283 89.8226 86.5864 93.5532 85.6632 97.8094L83.8525 106.159L94.6138 110.264" fill="#FCCD9D"/>
<path d="M105.694 78.7425L129.615 93.4743L135.305 84.8035L111.553 70.2148L105.694 78.7425Z" fill="black"/>
<path d="M41.8396 96.3389L77.9219 82.7305L63.3836 44.1829L27.3013 57.7914L41.8396 96.3389Z" fill="#C04631"/>
<path d="M36.6617 44.0561L47.9014 59.2603C49.7148 61.7133 49.4305 65.1305 47.2362 67.2501C45.0274 69.3837 41.5744 69.536 39.1864 67.6048L19.2669 51.4962L2.71045 26.2654L26.4624 11.6768L32.3654 20.2694L45.5368 29.0505C48.9849 31.349 51.4037 34.8988 52.2818 38.9485L54.1623 47.6201L43.401 51.7248" fill="#FCCD9D"/>
<path d="M26.4626 11.6768L2.71094 26.2654L8.4568 35.0219L32.3588 20.2594L26.4626 11.6768Z" fill="black"/>
<path d="M135.305 32.623C136.014 32.623 136.709 32.3346 137.21 31.8333C137.711 31.332 138 30.6366 138 29.9277C138 29.2189 137.712 28.5235 137.21 28.0221C136.709 27.5208 136.014 27.2324 135.305 27.2324C134.596 27.2324 133.9 27.5208 133.399 28.0221C132.898 28.5235 132.609 29.2189 132.609 29.9277C132.609 30.6366 132.898 31.332 133.399 31.8333C133.9 32.3346 134.596 32.623 135.305 32.623Z" fill="black"/>
<path d="M17.0138 52.9743C17.1666 53.2077 17.3553 53.4158 17.5723 53.5913L25.145 59.7153L39.3197 97.2942C39.572 97.9629 40.0795 98.5041 40.7309 98.7987C41.0832 98.9582 41.4622 99.0383 41.8414 99.0383C42.1632 99.0383 42.4859 98.9806 42.7926 98.8647L78.8728 85.255C80.2655 84.7297 80.9687 83.1745 80.4434 81.7818L65.9041 43.2364C65.3788 41.8438 63.8244 41.1397 62.4309 41.6659L56.1433 44.0375L54.9158 38.3768C53.8838 33.6174 51.0836 29.5087 47.0318 26.8074L34.2924 18.3145L28.705 10.1811L22.9058 1.23375C22.0961 -0.0152563 20.4269 -0.372116 19.1781 0.437826C17.9289 1.2475 17.5725 2.91644 18.3822 4.16571L22.6985 10.8253L1.30013 23.9684C0.678864 24.3498 0.23872 24.9665 0.0802355 25.6778C-0.0782489 26.3891 0.0575948 27.1344 0.45731 27.7438L17.0138 52.9743ZM74.4488 81.1627L43.4122 92.8701L33.4353 66.4199L37.4917 69.7003C39.1046 71.0046 41.0587 71.6491 43.0079 71.6488C45.2162 71.6488 47.4185 70.8213 49.109 69.1882C52.2634 66.1412 52.676 61.1842 50.0691 57.6577L46.8509 53.3042L61.8123 47.6608L74.4488 81.1627ZM49.6481 39.5193L51.0448 45.9608L43.52 48.7993L38.8289 42.4537C37.9443 41.2567 36.2565 41.0042 35.0595 41.8885C33.8625 42.7734 33.6094 44.4612 34.4943 45.6582L45.734 60.8624C46.7396 62.223 46.5806 64.1356 45.3636 65.3113C44.1354 66.4975 42.2085 66.5821 40.8811 65.5089L21.2894 49.665L12.176 35.7769L32.303 23.4668L44.0419 31.293C46.9231 33.2136 48.9142 36.1351 49.6481 39.5193ZM25.6908 15.3135L28.5344 19.4527L9.21708 31.2676L6.4878 27.1082L25.6908 15.3135Z" fill="black"/>
<path d="M135.305 132.606H107.457L112.87 118.254L120.443 112.13C120.66 111.955 120.849 111.747 121.002 111.513L137.558 86.2829C137.958 85.6735 138.094 84.9283 137.935 84.217C137.776 83.5057 137.336 82.889 136.715 82.5073L115.219 69.3043L132.134 40.6136C132.89 39.3314 132.463 37.6789 131.181 36.9229C129.897 36.1666 128.246 36.5935 127.49 37.8759L109.279 68.7664L103.722 76.8536L91.2575 85.1638C87.0285 87.9829 84.1065 92.2708 83.0298 97.238L81.8721 102.577L75.5845 100.205C74.9161 99.9525 74.174 99.9762 73.5229 100.271C72.8714 100.566 72.3636 101.107 72.1116 101.776L60.4821 132.606H13.478C11.9897 132.606 10.7827 133.813 10.7827 135.302C10.7827 136.79 11.9897 137.997 13.478 137.997H135.305C136.793 137.997 138 136.79 138 135.302C138 133.813 136.793 132.606 135.305 132.606ZM128.798 89.8062L109.481 77.9913L112.324 73.8527L131.528 85.6471L128.798 89.8062ZM88.298 98.3803C89.0767 94.7885 91.1898 91.6876 94.2477 89.6488L105.712 82.0055L125.839 94.3155L116.726 108.204L97.1343 124.048C95.8066 125.121 93.8797 125.036 92.6518 123.85C91.4348 122.675 91.2758 120.762 92.2814 119.401L103.521 104.197C104.406 103 104.153 101.313 102.956 100.428C101.759 99.5431 100.071 99.7956 99.1863 100.993L94.4953 107.338L86.9706 104.5L88.298 98.3803ZM66.2431 132.606L76.2036 106.2L91.1647 111.843L87.9465 116.197C85.3394 119.723 85.752 124.68 88.9063 127.727C90.5971 129.36 92.7989 130.188 95.0077 130.188C96.9567 130.188 98.9111 129.543 100.524 128.239L104.58 124.959L101.695 132.606L66.2431 132.606Z" fill="black"/>
<path d="M2.69531 132.606C1.20696 132.606 0 133.813 0 135.302C0 136.79 1.20696 137.997 2.69531 137.997H2.69666C4.18501 137.997 5.39143 136.79 5.39143 135.302C5.39143 133.813 4.18366 132.606 2.69531 132.606Z" fill="black"/>
</g>
<defs>
<clipPath id="clip0_422_17">
<rect width="138" height="138" fill="white"/>
</clipPath>
</defs>
</svg>
